# xmcd CD database file
#
# Track frame offsets:
#	150
#	15864
#	36328
#	52589
#	78052
#	101142
#	120641
#	143005
#	157642
#	171400
#	182913
#	197973
#	214080
#
# Disc length: 3154 seconds
#
# Revision: 0
# Processed by: cddbd v1.5.1PL0 Copyright (c) Steve Scherf et al.
# Submitted via: CDex 1.51
#
DISCID=9f0c500d
DTITLE=Various Artist - Jazz Ballads 2 Disc 1
DYEAR=2003
DGENRE=Jazz
TTITLE0=Ella Fitzgerald - They can't take that away from me
TTITLE1=Bev Kelly - Gloomy Sunday
TTITLE2=Chet Baker - When I fall in love
TTITLE3=Freddy Cole - If
TTITLE4=Oscar Peterson - Sometimes when we touch
TTITLE5=Etta Jones - Unchained melody
TTITLE6=Jimmy Scott - Smile
TTITLE7=Helen Humes - The very thought of you
TTITLE8=Betty Roche - Blue Moon
TTITLE9=Gary Mcfarland - Dreamer
TTITLE10=Sylvia Syms - Meditation
TTITLE11=Ithamara Koorax - Summer Samba
TTITLE12=Claudio Roditi - Una Misma Alma
EXTD=YEAR: 2003
EXTT0=
EXTT1=
EXTT2=
EXTT3=
EXTT4=
EXTT5=
EXTT6=
EXTT7=
EXTT8=
EXTT9=
EXTT10=
EXTT11=
EXTT12=
PLAYORDER=
